<svg xmlns="http://www.w3.org/2000/svg" viewBox="0 0 512 512" width="512" height="512">
  <defs>
    <linearGradient id="bg" x1="0%" y1="0%" x2="100%" y2="100%">
      <stop offset="0%" style="stop-color:#4F46E5"/>
      <stop offset="100%" style="stop-color:#7C3AED"/>
    </linearGradient>
  </defs>
  <rect width="512" height="512" rx="96" fill="url(#bg)"/>
  <!-- H -->
  <path d="M108 148h40v80h72v-80h40v216h-40v-96h-72v96h-40z" fill="white"/>
  <!-- S -->
  <path d="M304 188c0-22 18-44 60-44 38 0 58 18 62 42h-38c-2-10-10-16-24-16-16 0-22 8-22 16 0 12 10 18 34 26 36 12 56 28 56 58 0 28-22 50-64 50-42 0-64-22-68-48h40c2 14 12 22 28 22 18 0 26-8 26-18 0-14-10-20-36-28-34-12-54-26-54-60z" fill="white"/>
</svg>
